<svg width="160" height="160" viewBox="0 0 160 160" fill="none" xmlns="http://www.w3.org/2000/svg">
  <defs>
    <linearGradient id="brandGradient" x1="22" y1="22" x2="138" y2="138" gradientUnits="userSpaceOnUse">
      <stop stop-color="#155EEF"/>
      <stop offset="1" stop-color="#0D8F6F"/>
    </linearGradient>
  </defs>
  <rect x="18" y="18" width="124" height="124" rx="34" fill="url(#brandGradient)"/>
  <path d="M52 112V50C52 44.4772 56.4772 40 62 40H86.5L108 61.5V112C108 117.523 103.523 122 98 122H62C56.4772 122 52 117.523 52 112Z" fill="white" fill-opacity="0.96"/>
  <path d="M86 40V57C86 61.4183 89.5817 65 94 65H108" fill="#D8E6FF"/>
  <path d="M72 101L87 86" stroke="#155EEF" stroke-width="9" stroke-linecap="round"/>
  <path d="M87 86H75" stroke="#155EEF" stroke-width="9" stroke-linecap="round"/>
  <path d="M87 86V98" stroke="#155EEF" stroke-width="9" stroke-linecap="round"/>
  <rect x="67" y="64" width="26" height="6" rx="3" fill="#0D8F6F" fill-opacity="0.78"/>
  <rect x="67" y="75" width="18" height="6" rx="3" fill="#0D8F6F" fill-opacity="0.48"/>
</svg>
